<svg xmlns="http://www.w3.org/2000/svg" width="79" height="32" viewBox="0 0 79 32"><g><g><g><path fill="#fff" d="M4.175 11.425C5.348 10.25 6.767 9.659 8.44 9.659s3.093.582 4.266 1.766c1.174 1.174 1.766 2.592 1.766 4.266 0 1.664-.592 3.093-1.766 4.267-1.173 1.173-2.592 1.765-4.266 1.765-1.664 0-3.093-.592-4.266-1.765C3 18.784 2.409 17.365 2.409 15.69c0-1.674.592-3.092 1.766-4.266zM2.409 21.59l.061.06c1.643 1.644 3.634 2.47 5.971 2.47 2.327 0 4.317-.816 5.97-2.47 1.644-1.642 2.47-3.633 2.47-5.97 0-2.327-.816-4.317-2.47-5.971-1.642-1.643-3.633-2.47-5.97-2.47-2.327 0-4.317.827-5.971 2.48C.827 11.364 0 13.354 0 15.691v14.473c0 .327.122.613.357.847.235.235.52.358.847.358.327 0 .613-.123.848-.358.234-.234.357-.51.357-.847z"/></g><g><path fill="#fff" d="M32.017 11.425c1.174 1.174 1.766 2.592 1.766 4.266 0 1.664-.592 3.093-1.766 4.267-1.173 1.173-2.592 1.765-4.266 1.765-1.664 0-3.093-.592-4.266-1.765-1.174-1.174-1.766-2.593-1.766-4.267 0-1.664.592-3.092 1.766-4.266 1.173-1.174 2.592-1.766 4.266-1.766 1.664 0 3.093.582 4.266 1.766zm1.705-1.715c-1.643-1.643-3.634-2.47-5.971-2.47s-4.328.827-5.971 2.48c-1.643 1.644-2.47 3.634-2.47 5.971 0 2.327.817 4.318 2.47 5.971 1.643 1.643 3.634 2.47 5.971 2.47 2.327 0 4.317-.816 5.97-2.47 1.644-1.643 2.47-3.633 2.47-5.97 0-2.338-.826-4.328-2.47-5.982z"/></g><g><path fill="#fff" d="M77.876 1.512c.296.296.449.653.449 1.082 0 .418-.153.786-.45 1.082-.295.296-.652.449-1.081.449-.419 0-.786-.153-1.082-.45a1.471 1.471 0 0 1-.45-1.081c0-.419.154-.786.45-1.082.296-.296.653-.45 1.082-.45.429 0 .786.143 1.082.45zm.428-.44a2.081 2.081 0 0 0-1.52-.632c-.592 0-1.103.214-1.521.633a2.081 2.081 0 0 0-.633 1.52c0 .593.214 1.103.633 1.521.418.419.929.633 1.52.633.593 0 1.103-.214 1.521-.633.419-.418.633-.928.633-1.52s-.204-1.103-.633-1.521z"/></g><g><path fill="#fff" d="M39.816 8.439c0-.337.122-.613.356-.848.234-.235.518-.357.844-.357.335 0 .61.122.843.357.234.235.356.521.356.848V22.92c0 .337-.122.612-.356.847a1.158 1.158 0 0 1-.843.358c-.336 0-.61-.123-.844-.358a1.169 1.169 0 0 1-.356-.847zm2.715-4.818c0 .408-.153.765-.449 1.061-.296.296-.653.45-1.061.45-.409 0-.766-.154-1.062-.45a1.459 1.459 0 0 1-.449-1.061c0-.409.153-.766.45-1.062.295-.296.652-.449 1.06-.449.409 0 .766.153 1.062.45.296.295.45.642.45 1.06z"/></g><g><path fill="#fff" d="M45.85 8.444c0-.336.122-.612.357-.847s.52-.357.847-.357c.327 0 .613.122.848.357.234.235.357.52.357.847v.98c1.51-1.46 3.317-2.184 5.43-2.184 2.164 0 4.011.766 5.542 2.297 1.531 1.53 2.297 3.378 2.297 5.542v7.839c0 .336-.123.612-.358.847-.234.234-.52.357-.847.357-.326 0-.612-.123-.847-.357a1.165 1.165 0 0 1-.357-.847v-7.84c0-1.5-.531-2.775-1.593-3.837-1.061-1.061-2.337-1.582-3.837-1.582s-2.776.53-3.838 1.592c-1.061 1.062-1.592 2.338-1.592 3.838v7.839c0 .337-.123.612-.357.847-.235.235-.521.357-.848.357-.326 0-.612-.122-.847-.357a1.165 1.165 0 0 1-.357-.847z"/></g><g><path fill="#fff" d="M71.271 21.72c.337 0 .612.122.847.357s.357.52.357.847c0 .337-.122.613-.357.847-.235.235-.52.358-.847.358-4.021 0-6.032-2.011-6.032-6.032V9.656h-1.205c-.336 0-.612-.123-.847-.358a1.165 1.165 0 0 1-.357-.847c0-.337.122-.612.357-.847s.52-.357.847-.357h1.205V1.204c0-.336.122-.612.357-.847s.52-.357.847-.357c.337 0 .613.122.847.357.235.235.358.52.358.847v6.033h2.429c.337 0 .612.122.857.357.235.235.357.52.357.847 0 .337-.122.612-.357.847s-.52.357-.857.357h-2.43v8.441c0 2.42 1.215 3.634 3.624 3.634z"/></g></g></g></svg>